<svg xmlns="http://www.w3.org/2000/svg" width="100%" viewBox="0 0 187 38" fill="none" style="--logo-color-primary:#ffffff; --logo-color-secondary:#dfddd6; --logo-color-accent:#e0457b;">
<path d="M49.1453 26.375C52.1453 26.375 54.4253 24.755 55.3853 22.135L52.6853 21.155C52.1253 22.715 50.8653 23.635 49.1453 23.635C46.7853 23.635 45.2653 21.915 45.2653 19.055C45.2653 16.215 46.7853 14.495 49.1453 14.495C50.8653 14.495 52.1253 15.415 52.6853 16.975L55.3853 15.995C54.4253 13.375 52.1453 11.755 49.1453 11.755C45.1453 11.755 42.4053 14.695 42.4053 19.055C42.4053 23.435 45.1453 26.375 49.1453 26.375Z" fill="var(--logo-color-primary)"></path>
<path d="M61.6245 26.235C64.4845 26.235 66.6245 24.055 66.6245 21.095C66.6245 18.115 64.5045 15.975 61.6245 15.975C58.7045 15.975 56.6045 18.115 56.6045 21.095C56.6045 24.075 58.7245 26.235 61.6245 26.235ZM61.6245 23.835C60.1845 23.835 59.3445 22.835 59.3445 21.095C59.3445 19.355 60.1645 18.375 61.6245 18.375C63.0445 18.375 63.8645 19.355 63.8645 21.095C63.8645 22.835 63.0445 23.835 61.6245 23.835Z" fill="var(--logo-color-primary)"></path>
<path d="M68.4844 26.035H71.2244V21.935C71.2244 20.815 71.2844 20.335 71.4244 19.955C71.7244 19.095 72.4044 18.695 73.1444 18.695C73.6244 18.695 74.1244 18.875 74.4244 19.055L75.7444 16.575C75.0644 16.135 74.4644 15.975 73.8044 15.975C72.8044 15.975 71.7844 16.595 71.2444 17.555V16.175H68.4844V26.035Z" fill="var(--logo-color-primary)"></path>
<path d="M80.265 26.235C81.245 26.235 82.285 25.915 82.985 24.755V26.035H85.725V12.095H82.985V17.475C82.365 16.415 81.325 15.975 80.265 15.975C78.005 15.975 76.165 17.835 76.165 21.095C76.165 24.035 77.685 26.235 80.265 26.235ZM81.085 23.715C79.745 23.715 78.905 22.735 78.905 21.095C78.905 19.475 79.745 18.475 81.085 18.475C82.405 18.475 83.225 19.495 83.225 21.095C83.225 22.715 82.405 23.715 81.085 23.715Z" fill="var(--logo-color-primary)"></path>
<path d="M87.9443 14.735H90.8043V12.095H87.9443V14.735ZM88.0043 26.035H90.7443V16.175H88.0043V26.035Z" fill="var(--logo-color-primary)"></path>
<path d="M96.4445 26.235C97.4045 26.235 98.4045 25.875 99.1245 24.835L99.3045 26.035H101.825V19.795C101.825 17.435 100.185 15.975 97.4445 15.975C95.7245 15.975 94.3245 16.375 92.8445 17.455L94.1245 19.355C94.9445 18.715 96.1645 18.275 97.2045 18.275C98.3245 18.275 99.1045 18.735 99.1045 19.795V19.995H96.3045C95.4045 19.995 94.6045 20.155 93.9645 20.515C93.1645 20.975 92.6445 21.815 92.6445 22.955C92.6445 24.935 94.2845 26.235 96.4445 26.235ZM96.8445 24.035C95.9645 24.035 95.4045 23.615 95.4045 22.955C95.4045 22.655 95.5245 22.415 95.7445 22.255C95.9845 22.095 96.3445 22.015 96.7045 22.015H99.1045C99.1045 23.195 98.0645 24.035 96.8445 24.035Z" fill="var(--logo-color-primary)"></path>
<path d="M106.405 26.235C106.845 26.235 107.425 26.155 108.025 25.935V23.595C107.785 23.655 107.565 23.715 107.345 23.715C106.965 23.715 106.705 23.535 106.705 23.055V12.095H103.965V23.595C103.965 25.435 105.025 26.235 106.405 26.235Z" fill="var(--logo-color-primary)"></path>
<path d="M119.546 26.255C122.206 26.255 124.086 24.535 124.086 22.175C124.086 19.975 122.546 18.955 120.126 18.035C118.186 17.315 117.086 16.755 117.086 15.455C117.086 14.275 118.046 13.415 119.426 13.415C120.566 13.415 121.446 14.015 122.066 15.095L123.466 14.235C122.626 12.675 121.246 11.855 119.486 11.855C116.986 11.855 115.326 13.395 115.326 15.495C115.326 17.615 116.866 18.615 119.186 19.495C121.046 20.215 122.346 20.795 122.346 22.275C122.346 23.695 121.146 24.675 119.606 24.675C117.806 24.675 116.486 23.695 116.186 21.815L114.466 22.235C114.866 24.675 116.746 26.255 119.546 26.255Z" fill="var(--logo-color-primary)"></path>
<path d="M126.745 30.095H128.585L134.265 16.175H132.425L129.525 23.855L126.645 16.175H124.785L128.625 25.555L126.745 30.095Z" fill="var(--logo-color-primary)"></path>
<path d="M139.305 26.195C141.565 26.195 143.045 24.975 143.045 23.115C143.045 20.895 141.065 20.435 139.405 20.035C138.025 19.715 137.305 19.415 137.305 18.575C137.305 17.835 138.085 17.375 139.125 17.375C140.165 17.375 141.065 17.775 141.605 18.695L142.685 17.895C141.985 16.655 140.665 16.015 139.185 16.015C137.125 16.015 135.745 17.115 135.745 18.735C135.745 20.615 137.405 21.155 138.925 21.535C140.245 21.875 141.385 22.175 141.385 23.295C141.385 24.215 140.585 24.775 139.325 24.775C137.945 24.775 136.905 24.055 136.405 23.035L135.225 24.035C135.885 25.175 137.285 26.195 139.305 26.195Z" fill="var(--logo-color-primary)"></path>
<path d="M148.724 26.195C149.204 26.195 149.744 26.115 150.244 25.935V24.615C149.824 24.735 149.424 24.795 149.164 24.795C148.264 24.795 147.964 24.175 147.964 23.075V17.495H150.244V16.175H147.964V12.575L146.244 13.535V16.175H144.204V17.495H146.244V23.515C146.244 25.415 147.304 26.195 148.724 26.195Z" fill="var(--logo-color-primary)"></path>
<path d="M156.324 26.1949C157.944 26.1949 159.124 25.6749 160.224 24.5149L159.044 23.4749C158.284 24.2949 157.484 24.6549 156.344 24.6549C154.544 24.6549 153.464 23.5349 153.384 21.6149H160.484C160.524 21.3349 160.544 20.8549 160.544 20.7349C160.544 18.3349 159.204 16.0149 156.164 16.0149C153.184 16.0149 151.704 18.4349 151.704 21.1749C151.704 23.9149 153.224 26.1949 156.324 26.1949ZM153.364 20.3549C153.484 18.7549 154.464 17.4349 156.204 17.4349C158.044 17.4349 158.924 18.8149 158.924 20.1149V20.3549H153.364Z" fill="var(--logo-color-primary)"></path>
<path d="M162.964 26.0349H164.664V20.7349C164.664 18.5949 165.524 17.4749 166.984 17.4749C168.304 17.4749 169.024 18.3949 169.024 20.2949V26.0349H170.724V20.7349C170.724 18.5749 171.564 17.4749 173.004 17.4749C174.504 17.4749 175.084 18.5949 175.084 20.4349V26.0349H176.764V20.0349C176.764 17.8549 175.824 16.0149 173.384 16.0149C171.964 16.0149 171.024 16.6349 170.384 17.7749C169.844 16.5949 168.844 16.0149 167.484 16.0149C166.304 16.0149 165.264 16.5549 164.664 17.7749V16.1749H162.964V26.0349Z" fill="var(--logo-color-primary)"></path>
<path d="M182.785 26.195C185.045 26.195 186.525 24.975 186.525 23.115C186.525 20.895 184.545 20.435 182.885 20.035C181.505 19.715 180.785 19.415 180.785 18.575C180.785 17.835 181.565 17.375 182.605 17.375C183.645 17.375 184.545 17.775 185.085 18.695L186.165 17.895C185.465 16.655 184.145 16.015 182.665 16.015C180.605 16.015 179.225 17.115 179.225 18.735C179.225 20.615 180.885 21.155 182.405 21.535C183.725 21.875 184.865 22.175 184.865 23.295C184.865 24.215 184.065 24.775 182.805 24.775C181.425 24.775 180.385 24.055 179.885 23.035L178.705 24.035C179.365 25.175 180.765 26.195 182.785 26.195Z" fill="var(--logo-color-primary)"></path>
<path fill-rule="evenodd" clip-rule="evenodd" d="M18.6063 28.1976C23.6502 28.1976 27.7387 24.1092 27.7387 19.0653C27.7387 14.0214 23.6502 9.93204 18.6063 9.93204C13.5616 9.93204 9.47309 14.0214 9.47309 19.0653C9.47309 24.1092 13.5616 28.1976 18.6063 28.1976ZM18.6063 31.6445C25.553 31.6445 31.1855 26.0129 31.1855 19.0653C31.1855 12.1177 25.553 6.48608 18.6063 6.48608C11.6587 6.48608 6.02625 12.1177 6.02625 19.0653C6.02625 26.0129 11.6587 31.6445 18.6063 31.6445Z" fill="var(--logo-color-secondary)"></path>
<path fill-rule="evenodd" clip-rule="evenodd" d="M21.6419 1.2222L21.0736 4.62131C20.2826 4.48962 19.4686 4.42069 18.636 4.42069C17.8026 4.42069 16.9886 4.48962 16.1976 4.62131L15.6293 1.2222C16.6068 1.05958 17.6117 0.974731 18.636 0.974731C19.6595 0.974731 20.6644 1.05958 21.6419 1.2222ZM12.3018 2.11042L13.5082 5.33896C11.9668 5.91343 10.5466 6.73979 9.29775 7.77031L7.09884 5.11447C8.63932 3.84356 10.3946 2.821 12.3018 2.11042ZM4.66219 7.54671L7.32245 9.74208C6.29016 10.9891 5.46204 12.4076 4.88668 13.9463L1.65372 12.7417C2.36518 10.8371 3.38863 9.08541 4.66219 7.54671ZM0.76373 16.0639C0.600226 17.0397 0.515381 18.0428 0.515381 19.0653C0.515381 20.0879 0.600226 21.0901 0.76373 22.0667L4.16815 21.4993C4.03558 20.7092 3.96664 19.897 3.96664 19.0653C3.96664 18.2337 4.03558 17.4206 4.16815 16.6313L0.76373 16.0639ZM1.65372 25.389L4.88668 24.1843C5.46204 25.723 6.29016 27.1407 7.32245 28.3877L4.66219 30.5831C3.38863 29.0453 2.36518 27.2927 1.65372 25.389ZM7.09884 33.0153L9.29775 30.3595C10.5466 31.39 11.9668 32.2172 13.5082 32.7908L12.3018 36.0194C10.3946 35.3088 8.63932 34.2871 7.09884 33.0153ZM15.6293 36.9076L16.1976 33.5094C16.9886 33.641 17.8026 33.71 18.636 33.71C19.4686 33.71 20.2826 33.641 21.0736 33.5094L21.6419 36.9076C20.6644 37.0711 19.6595 37.1559 18.636 37.1559C17.6117 37.1559 16.6068 37.0711 15.6293 36.9076ZM24.9703 36.0194L23.763 32.7908C25.3043 32.2172 26.7246 31.39 27.9734 30.3595L30.1732 33.0153C28.6319 34.2871 26.8766 35.3088 24.9703 36.0194ZM32.609 30.5831L29.9487 28.3877C30.981 27.1407 31.8091 25.723 32.3845 24.1843L35.6183 25.389C34.906 27.2927 33.8826 29.0453 32.609 30.5831Z" fill="var(--logo-color-accent)"></path>
</svg>
